<?xml version="1.0" encoding="UTF-8" standalone="no"?>
<!DOCTYPE svg PUBLIC "-//W3C//DTD SVG 1.1//EN"
 "http://www.w3.org/Graphics/SVG/1.1/DTD/svg11.dtd">
<!-- Generated by graphviz version 2.36.0 (20140111.2315)
 -->
<!-- Title: controllers_diagram Pages: 1 -->
<svg width="604pt" height="500pt"
 viewBox="0.00 0.00 604.00 500.00" xmlns="http://www.w3.org/2000/svg" xmlns:xlink="http://www.w3.org/1999/xlink">
<g id="graph0" class="graph" transform="scale(1 1) rotate(0) translate(4 496)">
<title>controllers_diagram</title>
<polygon fill="none" stroke="none" points="-4,4 -4,-496 600,-496 600,4 -4,4"/>
<!-- _diagram_info -->
<g id="node1" class="node"><title>_diagram_info</title>
<text text-anchor="start" x="134" y="-477.6" font-family="Times,serif" font-size="13.00">Controllers diagram</text>
<text text-anchor="start" x="134" y="-463.6" font-family="Times,serif" font-size="13.00">Date: Dec 02 2015 &#45; 15:39</text>
<text text-anchor="start" x="134" y="-449.6" font-family="Times,serif" font-size="13.00">Migration version: 20151117134624</text>
<text text-anchor="start" x="134" y="-435.6" font-family="Times,serif" font-size="13.00">Generated by RailRoady 1.4.1</text>
<text text-anchor="start" x="134" y="-421.6" font-family="Times,serif" font-size="13.00">http://railroady.prestonlee.com</text>
</g>
<!-- PagesController -->
<g id="node2" class="node"><title>PagesController</title>
<path fill="none" stroke="black" d="M30,-144.5C30,-144.5 110,-144.5 110,-144.5 116,-144.5 122,-150.5 122,-156.5 122,-156.5 122,-225.5 122,-225.5 122,-231.5 116,-237.5 110,-237.5 110,-237.5 30,-237.5 30,-237.5 24,-237.5 18,-231.5 18,-225.5 18,-225.5 18,-156.5 18,-156.5 18,-150.5 24,-144.5 30,-144.5"/>
<text text-anchor="middle" x="70" y="-222.3" font-family="Times,serif" font-size="14.00">PagesController</text>
<polyline fill="none" stroke="black" points="18,-214.5 122,-214.5 "/>
<text text-anchor="start" x="26" y="-199.3" font-family="Times,serif" font-size="14.00">landing</text>
<polyline fill="none" stroke="black" points="18,-191.5 122,-191.5 "/>
<polyline fill="none" stroke="black" points="18,-167.5 122,-167.5 "/>
<text text-anchor="start" x="26" y="-152.3" font-family="Times,serif" font-size="14.00">_layout</text>
</g>
<!-- StartupsController -->
<g id="node3" class="node"><title>StartupsController</title>
<path fill="none" stroke="black" d="M174,-90.5C174,-90.5 308,-90.5 308,-90.5 314,-90.5 320,-96.5 320,-102.5 320,-102.5 320,-366.5 320,-366.5 320,-372.5 314,-378.5 308,-378.5 308,-378.5 174,-378.5 174,-378.5 168,-378.5 162,-372.5 162,-366.5 162,-366.5 162,-102.5 162,-102.5 162,-96.5 168,-90.5 174,-90.5"/>
<text text-anchor="middle" x="241" y="-363.3" font-family="Times,serif" font-size="14.00">StartupsController</text>
<polyline fill="none" stroke="black" points="162,-355.5 320,-355.5 "/>
<text text-anchor="start" x="170" y="-340.3" font-family="Times,serif" font-size="14.00">autocomplete_field_name</text>
<text text-anchor="start" x="170" y="-325.3" font-family="Times,serif" font-size="14.00">create</text>
<text text-anchor="start" x="170" y="-310.3" font-family="Times,serif" font-size="14.00">destroy</text>
<text text-anchor="start" x="170" y="-295.3" font-family="Times,serif" font-size="14.00">edit</text>
<text text-anchor="start" x="170" y="-280.3" font-family="Times,serif" font-size="14.00">get_autocomplete_items</text>
<text text-anchor="start" x="170" y="-265.3" font-family="Times,serif" font-size="14.00">get_autocomplete_order</text>
<text text-anchor="start" x="170" y="-250.3" font-family="Times,serif" font-size="14.00">get_prefix</text>
<text text-anchor="start" x="170" y="-235.3" font-family="Times,serif" font-size="14.00">index</text>
<text text-anchor="start" x="170" y="-220.3" font-family="Times,serif" font-size="14.00">new</text>
<text text-anchor="start" x="170" y="-205.3" font-family="Times,serif" font-size="14.00">show</text>
<text text-anchor="start" x="170" y="-190.3" font-family="Times,serif" font-size="14.00">startup_params</text>
<text text-anchor="start" x="170" y="-175.3" font-family="Times,serif" font-size="14.00">undo_upvote</text>
<text text-anchor="start" x="170" y="-160.3" font-family="Times,serif" font-size="14.00">update</text>
<text text-anchor="start" x="170" y="-145.3" font-family="Times,serif" font-size="14.00">upvote</text>
<polyline fill="none" stroke="black" points="162,-137.5 320,-137.5 "/>
<polyline fill="none" stroke="black" points="162,-113.5 320,-113.5 "/>
<text text-anchor="start" x="170" y="-98.3" font-family="Times,serif" font-size="14.00">_layout</text>
</g>
<!-- CommentsController -->
<g id="node4" class="node"><title>CommentsController</title>
<path fill="none" stroke="black" d="M12,-270.5C12,-270.5 120,-270.5 120,-270.5 126,-270.5 132,-276.5 132,-282.5 132,-282.5 132,-366.5 132,-366.5 132,-372.5 126,-378.5 120,-378.5 120,-378.5 12,-378.5 12,-378.5 6,-378.5 0,-372.5 0,-366.5 0,-366.5 0,-282.5 0,-282.5 0,-276.5 6,-270.5 12,-270.5"/>
<text text-anchor="middle" x="66" y="-363.3" font-family="Times,serif" font-size="14.00">CommentsController</text>
<polyline fill="none" stroke="black" points="0,-355.5 132,-355.5 "/>
<text text-anchor="start" x="8" y="-340.3" font-family="Times,serif" font-size="14.00">create</text>
<polyline fill="none" stroke="black" points="0,-332.5 132,-332.5 "/>
<polyline fill="none" stroke="black" points="0,-308.5 132,-308.5 "/>
<text text-anchor="start" x="8" y="-293.3" font-family="Times,serif" font-size="14.00">_layout</text>
<text text-anchor="start" x="8" y="-278.3" font-family="Times,serif" font-size="14.00">comment_params</text>
</g>
<!-- ApplicationController -->
<g id="node5" class="node"><title>ApplicationController</title>
<path fill="none" stroke="black" d="M372,-0.5C372,-0.5 542,-0.5 542,-0.5 548,-0.5 554,-6.5 554,-12.5 554,-12.5 554,-81.5 554,-81.5 554,-87.5 548,-93.5 542,-93.5 542,-93.5 372,-93.5 372,-93.5 366,-93.5 360,-87.5 360,-81.5 360,-81.5 360,-12.5 360,-12.5 360,-6.5 366,-0.5 372,-0.5"/>
<text text-anchor="middle" x="457" y="-78.3" font-family="Times,serif" font-size="14.00">ApplicationController</text>
<polyline fill="none" stroke="black" points="360,-70.5 554,-70.5 "/>
<polyline fill="none" stroke="black" points="360,-46.5 554,-46.5 "/>
<text text-anchor="start" x="368" y="-31.3" font-family="Times,serif" font-size="14.00">configure_permitted_parameters</text>
<polyline fill="none" stroke="black" points="360,-23.5 554,-23.5 "/>
<text text-anchor="start" x="368" y="-8.3" font-family="Times,serif" font-size="14.00">_layout</text>
</g>
<!-- Users::OmniauthCallbacksController -->
<g id="node6" class="node"><title>Users::OmniauthCallbacksController</title>
<path fill="none" stroke="black" d="M390,-360.5C390,-360.5 584,-360.5 584,-360.5 590,-360.5 596,-366.5 596,-372.5 596,-372.5 596,-471.5 596,-471.5 596,-477.5 590,-483.5 584,-483.5 584,-483.5 390,-483.5 390,-483.5 384,-483.5 378,-477.5 378,-471.5 378,-471.5 378,-372.5 378,-372.5 378,-366.5 384,-360.5 390,-360.5"/>
<text text-anchor="middle" x="487" y="-468.3" font-family="Times,serif" font-size="14.00">Users::OmniauthCallbacksController</text>
<polyline fill="none" stroke="black" points="378,-460.5 596,-460.5 "/>
<text text-anchor="start" x="386" y="-445.3" font-family="Times,serif" font-size="14.00">facebook</text>
<text text-anchor="start" x="386" y="-430.3" font-family="Times,serif" font-size="14.00">google_oauth2</text>
<text text-anchor="start" x="386" y="-415.3" font-family="Times,serif" font-size="14.00">linkedin</text>
<polyline fill="none" stroke="black" points="378,-407.5 596,-407.5 "/>
<polyline fill="none" stroke="black" points="378,-383.5 596,-383.5 "/>
<text text-anchor="start" x="386" y="-368.3" font-family="Times,serif" font-size="14.00">_layout</text>
</g>
<!-- UsersController -->
<g id="node7" class="node"><title>UsersController</title>
<path fill="none" stroke="black" d="M372,-126.5C372,-126.5 506,-126.5 506,-126.5 512,-126.5 518,-132.5 518,-138.5 518,-138.5 518,-312.5 518,-312.5 518,-318.5 512,-324.5 506,-324.5 506,-324.5 372,-324.5 372,-324.5 366,-324.5 360,-318.5 360,-312.5 360,-312.5 360,-138.5 360,-138.5 360,-132.5 366,-126.5 372,-126.5"/>
<text text-anchor="middle" x="439" y="-309.3" font-family="Times,serif" font-size="14.00">UsersController</text>
<polyline fill="none" stroke="black" points="360,-301.5 518,-301.5 "/>
<text text-anchor="start" x="368" y="-286.3" font-family="Times,serif" font-size="14.00">autocomplete_field_name</text>
<text text-anchor="start" x="368" y="-271.3" font-family="Times,serif" font-size="14.00">edit</text>
<text text-anchor="start" x="368" y="-256.3" font-family="Times,serif" font-size="14.00">get_autocomplete_items</text>
<text text-anchor="start" x="368" y="-241.3" font-family="Times,serif" font-size="14.00">get_autocomplete_order</text>
<text text-anchor="start" x="368" y="-226.3" font-family="Times,serif" font-size="14.00">get_prefix</text>
<text text-anchor="start" x="368" y="-211.3" font-family="Times,serif" font-size="14.00">show</text>
<text text-anchor="start" x="368" y="-196.3" font-family="Times,serif" font-size="14.00">update</text>
<text text-anchor="start" x="368" y="-181.3" font-family="Times,serif" font-size="14.00">user_params</text>
<polyline fill="none" stroke="black" points="360,-173.5 518,-173.5 "/>
<polyline fill="none" stroke="black" points="360,-149.5 518,-149.5 "/>
<text text-anchor="start" x="368" y="-134.3" font-family="Times,serif" font-size="14.00">_layout</text>
</g>
</g>
</svg>
