<?xml version="1.0" encoding="UTF-8" standalone="no"?>
<!DOCTYPE svg PUBLIC "-//W3C//DTD SVG 1.1//EN"
 "http://www.w3.org/Graphics/SVG/1.1/DTD/svg11.dtd">
<!-- Generated by graphviz version 2.36.0 (20140111.2315)
 -->
<!-- Title: models_diagram Pages: 1 -->
<svg width="2460pt" height="764pt"
 viewBox="0.00 0.00 2460.00 764.00" xmlns="http://www.w3.org/2000/svg" xmlns:xlink="http://www.w3.org/1999/xlink">
<g id="graph0" class="graph" transform="scale(1 1) rotate(0) translate(4 760)">
<title>models_diagram</title>
<polygon fill="none" stroke="none" points="-4,4 -4,-760 2456,-760 2456,4 -4,4"/>
<!-- _diagram_info -->
<g id="node1" class="node"><title>_diagram_info</title>
<text text-anchor="start" x="628" y="-599.6" font-family="Times,serif" font-size="13.00">Models diagram</text>
<text text-anchor="start" x="628" y="-585.6" font-family="Times,serif" font-size="13.00">Date: Dec 02 2015 &#45; 15:38</text>
<text text-anchor="start" x="628" y="-571.6" font-family="Times,serif" font-size="13.00">Migration version: 20151117134624</text>
<text text-anchor="start" x="628" y="-557.6" font-family="Times,serif" font-size="13.00">Generated by RailRoady 1.4.1</text>
<text text-anchor="start" x="628" y="-543.6" font-family="Times,serif" font-size="13.00">http://railroady.prestonlee.com</text>
</g>
<!-- User -->
<g id="node2" class="node"><title>User</title>
<path fill="none" stroke="black" d="M864.5,-394.5C864.5,-394.5 1153.5,-394.5 1153.5,-394.5 1159.5,-394.5 1165.5,-400.5 1165.5,-406.5 1165.5,-406.5 1165.5,-743.5 1165.5,-743.5 1165.5,-749.5 1159.5,-755.5 1153.5,-755.5 1153.5,-755.5 864.5,-755.5 864.5,-755.5 858.5,-755.5 852.5,-749.5 852.5,-743.5 852.5,-743.5 852.5,-406.5 852.5,-406.5 852.5,-400.5 858.5,-394.5 864.5,-394.5"/>
<text text-anchor="middle" x="1009" y="-740.3" font-family="Times,serif" font-size="14.00">User</text>
<polyline fill="none" stroke="black" points="852.5,-732.5 1165.5,-732.5 "/>
<text text-anchor="start" x="860.5" y="-717.3" font-family="Times,serif" font-size="14.00">id :integer</text>
<text text-anchor="start" x="860.5" y="-702.3" font-family="Times,serif" font-size="14.00">email :character varying</text>
<text text-anchor="start" x="860.5" y="-687.3" font-family="Times,serif" font-size="14.00">encrypted_password :character varying</text>
<text text-anchor="start" x="860.5" y="-672.3" font-family="Times,serif" font-size="14.00">reset_password_token :character varying</text>
<text text-anchor="start" x="860.5" y="-657.3" font-family="Times,serif" font-size="14.00">reset_password_sent_at :timestamp without time zone</text>
<text text-anchor="start" x="860.5" y="-642.3" font-family="Times,serif" font-size="14.00">remember_created_at :timestamp without time zone</text>
<text text-anchor="start" x="860.5" y="-627.3" font-family="Times,serif" font-size="14.00">sign_in_count :integer</text>
<text text-anchor="start" x="860.5" y="-612.3" font-family="Times,serif" font-size="14.00">current_sign_in_at :timestamp without time zone</text>
<text text-anchor="start" x="860.5" y="-597.3" font-family="Times,serif" font-size="14.00">last_sign_in_at :timestamp without time zone</text>
<text text-anchor="start" x="860.5" y="-582.3" font-family="Times,serif" font-size="14.00">current_sign_in_ip :inet</text>
<text text-anchor="start" x="860.5" y="-567.3" font-family="Times,serif" font-size="14.00">last_sign_in_ip :inet</text>
<text text-anchor="start" x="860.5" y="-552.3" font-family="Times,serif" font-size="14.00">created_at :timestamp without time zone</text>
<text text-anchor="start" x="860.5" y="-537.3" font-family="Times,serif" font-size="14.00">updated_at :timestamp without time zone</text>
<text text-anchor="start" x="860.5" y="-522.3" font-family="Times,serif" font-size="14.00">first_name :character varying</text>
<text text-anchor="start" x="860.5" y="-507.3" font-family="Times,serif" font-size="14.00">last_name :character varying</text>
<text text-anchor="start" x="860.5" y="-492.3" font-family="Times,serif" font-size="14.00">user_name :character varying</text>
<text text-anchor="start" x="860.5" y="-477.3" font-family="Times,serif" font-size="14.00">provider :character varying</text>
<text text-anchor="start" x="860.5" y="-462.3" font-family="Times,serif" font-size="14.00">uid :character varying</text>
<text text-anchor="start" x="860.5" y="-447.3" font-family="Times,serif" font-size="14.00">avatar_file_name :character varying</text>
<text text-anchor="start" x="860.5" y="-432.3" font-family="Times,serif" font-size="14.00">avatar_content_type :character varying</text>
<text text-anchor="start" x="860.5" y="-417.3" font-family="Times,serif" font-size="14.00">avatar_file_size :integer</text>
<text text-anchor="start" x="860.5" y="-402.3" font-family="Times,serif" font-size="14.00">avatar_updated_at :timestamp without time zone</text>
</g>
<!-- Startup -->
<g id="node3" class="node"><title>Startup</title>
<path fill="none" stroke="black" d="M696,-204.5C696,-204.5 916,-204.5 916,-204.5 922,-204.5 928,-210.5 928,-216.5 928,-216.5 928,-313.5 928,-313.5 928,-319.5 922,-325.5 916,-325.5 916,-325.5 696,-325.5 696,-325.5 690,-325.5 684,-319.5 684,-313.5 684,-313.5 684,-216.5 684,-216.5 684,-210.5 690,-204.5 696,-204.5"/>
<text text-anchor="middle" x="806" y="-310.3" font-family="Times,serif" font-size="14.00">Startup</text>
<polyline fill="none" stroke="black" points="684,-302.5 928,-302.5 "/>
<text text-anchor="start" x="692" y="-287.3" font-family="Times,serif" font-size="14.00">id :integer</text>
<text text-anchor="start" x="692" y="-272.3" font-family="Times,serif" font-size="14.00">name :character varying</text>
<text text-anchor="start" x="692" y="-257.3" font-family="Times,serif" font-size="14.00">description :character varying</text>
<text text-anchor="start" x="692" y="-242.3" font-family="Times,serif" font-size="14.00">created_at :timestamp without time zone</text>
<text text-anchor="start" x="692" y="-227.3" font-family="Times,serif" font-size="14.00">updated_at :timestamp without time zone</text>
<text text-anchor="start" x="692" y="-212.3" font-family="Times,serif" font-size="14.00">user_id :integer</text>
</g>
<!-- User&#45;&gt;Startup -->
<g id="edge1" class="edge"><title>User&#45;&gt;Startup</title>
<path fill="none" stroke="#f0f206" d="M884.928,-385.753C872.933,-367.553 861.38,-350.024 850.987,-334.256"/>
<polygon fill="#f0f206" stroke="#f0f206" points="885.117,-386.04 886.863,-396.866 887.869,-390.215 890.62,-394.389 890.62,-394.389 890.62,-394.389 887.869,-390.215 894.378,-391.913 885.117,-386.04 885.117,-386.04"/>
<polygon fill="#f0f206" stroke="#f0f206" points="850.841,-334.034 849.095,-323.208 848.089,-329.859 845.337,-325.684 845.337,-325.684 845.337,-325.684 848.089,-329.859 841.58,-328.161 850.841,-334.034 850.841,-334.034"/>
</g>
<!-- Help -->
<g id="node4" class="node"><title>Help</title>
<path fill="none" stroke="black" d="M1172,-212C1172,-212 1392,-212 1392,-212 1398,-212 1404,-218 1404,-224 1404,-224 1404,-306 1404,-306 1404,-312 1398,-318 1392,-318 1392,-318 1172,-318 1172,-318 1166,-318 1160,-312 1160,-306 1160,-306 1160,-224 1160,-224 1160,-218 1166,-212 1172,-212"/>
<text text-anchor="middle" x="1282" y="-302.8" font-family="Times,serif" font-size="14.00">Help</text>
<polyline fill="none" stroke="black" points="1160,-295 1404,-295 "/>
<text text-anchor="start" x="1168" y="-279.8" font-family="Times,serif" font-size="14.00">id :integer</text>
<text text-anchor="start" x="1168" y="-264.8" font-family="Times,serif" font-size="14.00">user_id :integer</text>
<text text-anchor="start" x="1168" y="-249.8" font-family="Times,serif" font-size="14.00">description :text</text>
<text text-anchor="start" x="1168" y="-234.8" font-family="Times,serif" font-size="14.00">created_at :timestamp without time zone</text>
<text text-anchor="start" x="1168" y="-219.8" font-family="Times,serif" font-size="14.00">updated_at :timestamp without time zone</text>
</g>
<!-- User&#45;&gt;Help -->
<g id="edge7" class="edge"><title>User&#45;&gt;Help</title>
<path fill="none" stroke="#a0f98d" d="M1171.2,-391.004C1192.04,-367.49 1212.06,-344.912 1229.2,-325.57"/>
<ellipse fill="none" stroke="#a0f98d" cx="1168.48" cy="-394.073" rx="4.00002" ry="4.00002"/>
<polygon fill="#a0f98d" stroke="#a0f98d" points="1229.24,-325.528 1239.24,-321.029 1232.55,-321.786 1235.87,-318.045 1235.87,-318.045 1235.87,-318.045 1232.55,-321.786 1232.5,-315.06 1229.24,-325.528 1229.24,-325.528"/>
</g>
<!-- Phone -->
<g id="node5" class="node"><title>Phone</title>
<path fill="none" stroke="black" d="M1434,-212C1434,-212 1654,-212 1654,-212 1660,-212 1666,-218 1666,-224 1666,-224 1666,-306 1666,-306 1666,-312 1660,-318 1654,-318 1654,-318 1434,-318 1434,-318 1428,-318 1422,-312 1422,-306 1422,-306 1422,-224 1422,-224 1422,-218 1428,-212 1434,-212"/>
<text text-anchor="middle" x="1544" y="-302.8" font-family="Times,serif" font-size="14.00">Phone</text>
<polyline fill="none" stroke="black" points="1422,-295 1666,-295 "/>
<text text-anchor="start" x="1430" y="-279.8" font-family="Times,serif" font-size="14.00">id :integer</text>
<text text-anchor="start" x="1430" y="-264.8" font-family="Times,serif" font-size="14.00">phone_number :character varying</text>
<text text-anchor="start" x="1430" y="-249.8" font-family="Times,serif" font-size="14.00">user_id :integer</text>
<text text-anchor="start" x="1430" y="-234.8" font-family="Times,serif" font-size="14.00">created_at :timestamp without time zone</text>
<text text-anchor="start" x="1430" y="-219.8" font-family="Times,serif" font-size="14.00">updated_at :timestamp without time zone</text>
</g>
<!-- User&#45;&gt;Phone -->
<g id="edge3" class="edge"><title>User&#45;&gt;Phone</title>
<path fill="none" stroke="#3738a3" d="M1172.78,-490.731C1247.14,-451.63 1335.58,-403.294 1413,-356 1429.34,-346.017 1446.45,-334.832 1462.71,-323.83"/>
<ellipse fill="none" stroke="#3738a3" cx="1169.17" cy="-492.626" rx="4.00002" ry="4.00002"/>
<polygon fill="#3738a3" stroke="#3738a3" points="1462.86,-323.728 1473.66,-321.821 1466.99,-320.915 1471.13,-318.101 1471.13,-318.101 1471.13,-318.101 1466.99,-320.915 1468.6,-314.381 1462.86,-323.728 1462.86,-323.728"/>
</g>
<!-- WorkExperience -->
<g id="node6" class="node"><title>WorkExperience</title>
<path fill="none" stroke="black" d="M1696,-174.5C1696,-174.5 1916,-174.5 1916,-174.5 1922,-174.5 1928,-180.5 1928,-186.5 1928,-186.5 1928,-343.5 1928,-343.5 1928,-349.5 1922,-355.5 1916,-355.5 1916,-355.5 1696,-355.5 1696,-355.5 1690,-355.5 1684,-349.5 1684,-343.5 1684,-343.5 1684,-186.5 1684,-186.5 1684,-180.5 1690,-174.5 1696,-174.5"/>
<text text-anchor="middle" x="1806" y="-340.3" font-family="Times,serif" font-size="14.00">WorkExperience</text>
<polyline fill="none" stroke="black" points="1684,-332.5 1928,-332.5 "/>
<text text-anchor="start" x="1692" y="-317.3" font-family="Times,serif" font-size="14.00">id :integer</text>
<text text-anchor="start" x="1692" y="-302.3" font-family="Times,serif" font-size="14.00">user_id :integer</text>
<text text-anchor="start" x="1692" y="-287.3" font-family="Times,serif" font-size="14.00">job_role :character varying</text>
<text text-anchor="start" x="1692" y="-272.3" font-family="Times,serif" font-size="14.00">company :character varying</text>
<text text-anchor="start" x="1692" y="-257.3" font-family="Times,serif" font-size="14.00">summary :character varying</text>
<text text-anchor="start" x="1692" y="-242.3" font-family="Times,serif" font-size="14.00">start_date :date</text>
<text text-anchor="start" x="1692" y="-227.3" font-family="Times,serif" font-size="14.00">end_date :date</text>
<text text-anchor="start" x="1692" y="-212.3" font-family="Times,serif" font-size="14.00">is_current :boolean</text>
<text text-anchor="start" x="1692" y="-197.3" font-family="Times,serif" font-size="14.00">created_at :timestamp without time zone</text>
<text text-anchor="start" x="1692" y="-182.3" font-family="Times,serif" font-size="14.00">updated_at :timestamp without time zone</text>
</g>
<!-- User&#45;&gt;WorkExperience -->
<g id="edge4" class="edge"><title>User&#45;&gt;WorkExperience</title>
<path fill="none" stroke="#d2e129" d="M1173.42,-534.272C1311.43,-497.653 1511.63,-436.766 1675,-356 1675.09,-355.954 1675.19,-355.908 1675.28,-355.862"/>
<ellipse fill="none" stroke="#d2e129" cx="1169.53" cy="-535.301" rx="4.00001" ry="4.00001"/>
<polygon fill="#d2e129" stroke="#d2e129" points="1675.03,-355.99 1685.98,-355.43 1679.48,-353.708 1683.93,-351.426 1683.93,-351.426 1683.93,-351.426 1679.48,-353.708 1681.87,-347.422 1675.03,-355.99 1675.03,-355.99"/>
</g>
<!-- BestExperience -->
<g id="node7" class="node"><title>BestExperience</title>
<path fill="none" stroke="black" d="M1958,-189.5C1958,-189.5 2178,-189.5 2178,-189.5 2184,-189.5 2190,-195.5 2190,-201.5 2190,-201.5 2190,-328.5 2190,-328.5 2190,-334.5 2184,-340.5 2178,-340.5 2178,-340.5 1958,-340.5 1958,-340.5 1952,-340.5 1946,-334.5 1946,-328.5 1946,-328.5 1946,-201.5 1946,-201.5 1946,-195.5 1952,-189.5 1958,-189.5"/>
<text text-anchor="middle" x="2068" y="-325.3" font-family="Times,serif" font-size="14.00">BestExperience</text>
<polyline fill="none" stroke="black" points="1946,-317.5 2190,-317.5 "/>
<text text-anchor="start" x="1954" y="-302.3" font-family="Times,serif" font-size="14.00">id :integer</text>
<text text-anchor="start" x="1954" y="-287.3" font-family="Times,serif" font-size="14.00">user_id :integer</text>
<text text-anchor="start" x="1954" y="-272.3" font-family="Times,serif" font-size="14.00">title :character varying</text>
<text text-anchor="start" x="1954" y="-257.3" font-family="Times,serif" font-size="14.00">summary :character varying</text>
<text text-anchor="start" x="1954" y="-242.3" font-family="Times,serif" font-size="14.00">start_date :date</text>
<text text-anchor="start" x="1954" y="-227.3" font-family="Times,serif" font-size="14.00">end_date :date</text>
<text text-anchor="start" x="1954" y="-212.3" font-family="Times,serif" font-size="14.00">created_at :timestamp without time zone</text>
<text text-anchor="start" x="1954" y="-197.3" font-family="Times,serif" font-size="14.00">updated_at :timestamp without time zone</text>
</g>
<!-- User&#45;&gt;BestExperience -->
<g id="edge5" class="edge"><title>User&#45;&gt;BestExperience</title>
<path fill="none" stroke="#aaf362" d="M1173.82,-554.093C1364.08,-526.904 1683.33,-468.171 1937,-356 1944.1,-352.861 1951.22,-349.326 1958.27,-345.519"/>
<ellipse fill="none" stroke="#aaf362" cx="1169.67" cy="-554.683" rx="4.00001" ry="4.00001"/>
<polygon fill="#aaf362" stroke="#aaf362" points="1958.42,-345.433 1969.35,-344.491 1962.79,-342.997 1967.15,-340.561 1967.15,-340.561 1967.15,-340.561 1962.79,-342.997 1964.96,-336.632 1958.42,-345.433 1958.42,-345.433"/>
</g>
<!-- Client -->
<g id="node8" class="node"><title>Client</title>
<path fill="none" stroke="black" d="M2220,-182C2220,-182 2440,-182 2440,-182 2446,-182 2452,-188 2452,-194 2452,-194 2452,-336 2452,-336 2452,-342 2446,-348 2440,-348 2440,-348 2220,-348 2220,-348 2214,-348 2208,-342 2208,-336 2208,-336 2208,-194 2208,-194 2208,-188 2214,-182 2220,-182"/>
<text text-anchor="middle" x="2330" y="-332.8" font-family="Times,serif" font-size="14.00">Client</text>
<polyline fill="none" stroke="black" points="2208,-325 2452,-325 "/>
<text text-anchor="start" x="2216" y="-309.8" font-family="Times,serif" font-size="14.00">id :integer</text>
<text text-anchor="start" x="2216" y="-294.8" font-family="Times,serif" font-size="14.00">user_id :integer</text>
<text text-anchor="start" x="2216" y="-279.8" font-family="Times,serif" font-size="14.00">name :character varying</text>
<text text-anchor="start" x="2216" y="-264.8" font-family="Times,serif" font-size="14.00">email :character varying</text>
<text text-anchor="start" x="2216" y="-249.8" font-family="Times,serif" font-size="14.00">phone :character varying</text>
<text text-anchor="start" x="2216" y="-234.8" font-family="Times,serif" font-size="14.00">job_role :character varying</text>
<text text-anchor="start" x="2216" y="-219.8" font-family="Times,serif" font-size="14.00">company :character varying</text>
<text text-anchor="start" x="2216" y="-204.8" font-family="Times,serif" font-size="14.00">created_at :timestamp without time zone</text>
<text text-anchor="start" x="2216" y="-189.8" font-family="Times,serif" font-size="14.00">updated_at :timestamp without time zone</text>
</g>
<!-- User&#45;&gt;Client -->
<g id="edge6" class="edge"><title>User&#45;&gt;Client</title>
<path fill="none" stroke="#36c247" d="M1173.86,-565.571C1409.37,-548.761 1851.97,-499.288 2199,-356 2201.69,-354.889 2204.38,-353.717 2207.07,-352.491"/>
<ellipse fill="none" stroke="#36c247" cx="1169.56" cy="-565.874" rx="4" ry="4"/>
<polygon fill="#36c247" stroke="#36c247" points="2207.16,-352.445 2218.13,-352.181 2211.67,-350.284 2216.18,-348.123 2216.18,-348.123 2216.18,-348.123 2211.67,-350.284 2214.24,-344.065 2207.16,-352.445 2207.16,-352.445"/>
</g>
<!-- Upvote -->
<g id="node9" class="node"><title>Upvote</title>
<path fill="none" stroke="black" d="M12,-8C12,-8 232,-8 232,-8 238,-8 244,-14 244,-20 244,-20 244,-102 244,-102 244,-108 238,-114 232,-114 232,-114 12,-114 12,-114 6,-114 0,-108 0,-102 0,-102 0,-20 0,-20 0,-14 6,-8 12,-8"/>
<text text-anchor="middle" x="122" y="-98.8" font-family="Times,serif" font-size="14.00">Upvote</text>
<polyline fill="none" stroke="black" points="0,-91 244,-91 "/>
<text text-anchor="start" x="8" y="-75.8" font-family="Times,serif" font-size="14.00">id :integer</text>
<text text-anchor="start" x="8" y="-60.8" font-family="Times,serif" font-size="14.00">user_id :integer</text>
<text text-anchor="start" x="8" y="-45.8" font-family="Times,serif" font-size="14.00">startup_id :integer</text>
<text text-anchor="start" x="8" y="-30.8" font-family="Times,serif" font-size="14.00">created_at :timestamp without time zone</text>
<text text-anchor="start" x="8" y="-15.8" font-family="Times,serif" font-size="14.00">updated_at :timestamp without time zone</text>
</g>
<!-- User&#45;&gt;Upvote -->
<g id="edge14" class="edge"><title>User&#45;&gt;Upvote</title>
<path fill="none" stroke="#7a8ce6" d="M844.931,-395.38C843.957,-394.911 842.98,-394.451 842,-394 740.988,-347.479 431.967,-422.728 343,-356 258.719,-292.786 191.278,-188.936 153.979,-123.085"/>
<ellipse fill="none" stroke="#7a8ce6" cx="848.769" cy="-397.325" rx="4.00002" ry="4.00002"/>
<polygon fill="#7a8ce6" stroke="#7a8ce6" points="153.806,-122.777 152.842,-111.854 151.361,-118.415 148.917,-114.054 148.917,-114.054 148.917,-114.054 151.361,-118.415 144.991,-116.254 153.806,-122.777 153.806,-122.777"/>
</g>
<!-- Comment -->
<g id="node10" class="node"><title>Comment</title>
<path fill="none" stroke="black" d="M274,-0.5C274,-0.5 494,-0.5 494,-0.5 500,-0.5 506,-6.5 506,-12.5 506,-12.5 506,-109.5 506,-109.5 506,-115.5 500,-121.5 494,-121.5 494,-121.5 274,-121.5 274,-121.5 268,-121.5 262,-115.5 262,-109.5 262,-109.5 262,-12.5 262,-12.5 262,-6.5 268,-0.5 274,-0.5"/>
<text text-anchor="middle" x="384" y="-106.3" font-family="Times,serif" font-size="14.00">Comment</text>
<polyline fill="none" stroke="black" points="262,-98.5 506,-98.5 "/>
<text text-anchor="start" x="270" y="-83.3" font-family="Times,serif" font-size="14.00">id :integer</text>
<text text-anchor="start" x="270" y="-68.3" font-family="Times,serif" font-size="14.00">user_id :integer</text>
<text text-anchor="start" x="270" y="-53.3" font-family="Times,serif" font-size="14.00">startup_id :integer</text>
<text text-anchor="start" x="270" y="-38.3" font-family="Times,serif" font-size="14.00">text :text</text>
<text text-anchor="start" x="270" y="-23.3" font-family="Times,serif" font-size="14.00">created_at :timestamp without time zone</text>
<text text-anchor="start" x="270" y="-8.3" font-family="Times,serif" font-size="14.00">updated_at :timestamp without time zone</text>
</g>
<!-- User&#45;&gt;Comment -->
<g id="edge2" class="edge"><title>User&#45;&gt;Comment</title>
<path fill="none" stroke="#d85140" d="M844.929,-395.385C843.955,-394.915 842.979,-394.453 842,-394 748.109,-350.551 437.353,-440.738 378,-356 332.336,-290.806 344.518,-195.975 361.025,-131.786"/>
<ellipse fill="none" stroke="#d85140" cx="848.764" cy="-397.337" rx="4.00002" ry="4.00002"/>
<polygon fill="#d85140" stroke="#d85140" points="361.123,-131.418 368.05,-122.918 362.413,-126.588 363.703,-121.757 363.703,-121.757 363.703,-121.757 362.413,-126.588 359.355,-120.596 361.123,-131.418 361.123,-131.418"/>
</g>
<!-- ActsAsTaggableOn::Tagging -->
<g id="node11" class="node"><title>ActsAsTaggableOn::Tagging</title>
<ellipse fill="none" stroke="black" cx="638" cy="-61" rx="114.085" ry="18"/>
<text text-anchor="middle" x="638" y="-57.3" font-family="Times,serif" font-size="14.00">ActsAsTaggableOn::Tagging</text>
</g>
<!-- User&#45;&gt;ActsAsTaggableOn::Tagging -->
<g id="edge8" class="edge"><title>User&#45;&gt;ActsAsTaggableOn::Tagging</title>
<path fill="none" stroke="#71467c" d="M844.926,-395.391C843.954,-394.919 842.978,-394.455 842,-394 755.426,-353.721 468.547,-434.371 414,-356 367.791,-289.609 374.905,-244.814 414,-174 427.707,-149.171 442.636,-152.688 468,-140 488.005,-129.993 494.484,-130.912 515,-122 542.896,-109.882 573.648,-94.8814 597.425,-82.9102"/>
<ellipse fill="none" stroke="#71467c" cx="848.758" cy="-397.35" rx="4.00002" ry="4.00002"/>
<polygon fill="#71467c" stroke="#71467c" points="597.579,-82.8321 608.534,-82.3321 602.041,-80.5745 606.502,-78.3169 606.502,-78.3169 606.502,-78.3169 602.041,-80.5745 604.47,-74.3017 597.579,-82.8321 597.579,-82.8321"/>
<text text-anchor="middle" x="437" y="-261.3" font-family="Times,serif" font-size="14.00">taggings</text>
</g>
<!-- User&#45;&gt;ActsAsTaggableOn::Tagging -->
<g id="edge10" class="edge"><title>User&#45;&gt;ActsAsTaggableOn::Tagging</title>
<path fill="none" stroke="#7f4c81" d="M844.913,-395.418C843.945,-394.937 842.974,-394.464 842,-394 772.18,-360.707 543.419,-417.112 496,-356 466.566,-318.067 473.905,-179.637 501,-140 519.734,-112.595 551.468,-93.6491 579.68,-81.2987"/>
<ellipse fill="none" stroke="#7f4c81" cx="848.73" cy="-397.412" rx="4.00002" ry="4.00002"/>
<polygon fill="#7f4c81" stroke="#7f4c81" points="579.864,-81.2217 590.826,-81.5114 584.476,-79.2911 589.088,-77.3604 589.088,-77.3604 589.088,-77.3604 584.476,-79.2911 587.351,-73.2094 579.864,-81.2217 579.864,-81.2217"/>
<text text-anchor="middle" x="531" y="-261.3" font-family="Times,serif" font-size="14.00">tag_taggings</text>
</g>
<!-- User&#45;&gt;ActsAsTaggableOn::Tagging -->
<g id="edge12" class="edge"><title>User&#45;&gt;ActsAsTaggableOn::Tagging</title>
<path fill="none" stroke="#053945" d="M845.255,-395.764C844.173,-395.166 843.088,-394.578 842,-394 744.69,-342.301 670.356,-438.225 597,-356 565.024,-320.157 575.705,-186.156 589,-140 594.587,-120.602 606.578,-101.37 617.298,-86.8564"/>
<ellipse fill="none" stroke="#053945" cx="848.877" cy="-397.849" rx="4.00002" ry="4.00002"/>
<polygon fill="#053945" stroke="#053945" points="617.321,-86.8264 626.977,-81.6285 620.363,-82.8584 623.406,-78.8905 623.406,-78.8905 623.406,-78.8905 620.363,-82.8584 619.835,-76.1524 617.321,-86.8264 617.321,-86.8264"/>
<text text-anchor="middle" x="636" y="-261.3" font-family="Times,serif" font-size="14.00">field_taggings</text>
</g>
<!-- ActsAsTaggableOn::Tag -->
<g id="node12" class="node"><title>ActsAsTaggableOn::Tag</title>
<ellipse fill="none" stroke="black" cx="1005" cy="-61" rx="98.1881" ry="18"/>
<text text-anchor="middle" x="1005" y="-57.3" font-family="Times,serif" font-size="14.00">ActsAsTaggableOn::Tag</text>
</g>
<!-- User&#45;&gt;ActsAsTaggableOn::Tag -->
<g id="edge9" class="edge"><title>User&#45;&gt;ActsAsTaggableOn::Tag</title>
<path fill="none" stroke="#f2579b" d="M980.397,-384.299C979.466,-374.743 978.656,-365.269 978,-356 972.292,-275.313 941.825,-246.349 978,-174 983.963,-162.074 995.848,-167.829 1002,-156 1012.68,-135.467 1012.45,-108.852 1010.12,-89.1867"/>
<polygon fill="#f2579b" stroke="#f2579b" points="980.4,-384.334 976.931,-394.737 980.904,-389.309 981.408,-394.283 981.408,-394.283 981.408,-394.283 980.904,-389.309 985.885,-393.83 980.4,-384.334 980.4,-384.334"/>
<polygon fill="#f2579b" stroke="#f2579b" points="1010.09,-88.9574 1013.12,-78.4191 1009.38,-84.0082 1008.67,-79.059 1008.67,-79.059 1008.67,-79.059 1009.38,-84.0082 1004.21,-79.6989 1010.09,-88.9574 1010.09,-88.9574"/>
<text text-anchor="middle" x="1004.5" y="-261.3" font-family="Times,serif" font-size="14.00">base_tags</text>
</g>
<!-- User&#45;&gt;ActsAsTaggableOn::Tag -->
<g id="edge11" class="edge"><title>User&#45;&gt;ActsAsTaggableOn::Tag</title>
<path fill="none" stroke="#014c0c" d="M1032.53,-384.222C1037.32,-317.607 1038.83,-242.353 1031,-174 1027.63,-144.553 1019.42,-111.586 1013.12,-89.0897"/>
<polygon fill="#014c0c" stroke="#014c0c" points="1032.51,-384.439 1027.28,-394.075 1032.14,-389.425 1031.76,-394.411 1031.76,-394.411 1031.76,-394.411 1032.14,-389.425 1036.25,-394.748 1032.51,-384.439 1032.51,-384.439"/>
<polygon fill="#014c0c" stroke="#014c0c" points="1013.05,-88.8575 1014.62,-78.0046 1011.68,-84.051 1010.3,-79.2446 1010.3,-79.2446 1010.3,-79.2446 1011.68,-84.051 1005.97,-80.4847 1013.05,-88.8575 1013.05,-88.8575"/>
<text text-anchor="middle" x="1048" y="-261.3" font-family="Times,serif" font-size="14.00">tags</text>
</g>
<!-- User&#45;&gt;ActsAsTaggableOn::Tag -->
<g id="edge13" class="edge"><title>User&#45;&gt;ActsAsTaggableOn::Tag</title>
<path fill="none" stroke="#2574be" d="M1063.4,-384.052C1075.03,-317.098 1079.48,-241.674 1063,-174 1055.26,-142.212 1036.8,-109.378 1022.76,-87.547"/>
<polygon fill="#2574be" stroke="#2574be" points="1063.33,-384.452 1057.13,-393.496 1062.45,-389.373 1061.56,-394.294 1061.56,-394.294 1061.56,-394.294 1062.45,-389.373 1065.99,-395.091 1063.33,-384.452 1063.33,-384.452"/>
<polygon fill="#2574be" stroke="#2574be" points="1022.76,-87.534 1021.01,-76.7071 1020.01,-83.3578 1017.26,-79.1817 1017.26,-79.1817 1017.26,-79.1817 1020.01,-83.3578 1013.5,-81.6563 1022.76,-87.534 1022.76,-87.534"/>
<text text-anchor="middle" x="1089.5" y="-261.3" font-family="Times,serif" font-size="14.00">fields</text>
</g>
<!-- Startup&#45;&gt;Upvote -->
<g id="edge16" class="edge"><title>Startup&#45;&gt;Upvote</title>
<path fill="none" stroke="#361562" d="M722.116,-200.001C705.552,-189.866 687.775,-180.576 670,-174 626.208,-157.8 297.915,-134.759 253,-122 248.285,-120.661 243.525,-119.175 238.753,-117.573"/>
<ellipse fill="none" stroke="#361562" cx="725.745" cy="-202.271" rx="4.00002" ry="4.00002"/>
<polygon fill="#361562" stroke="#361562" points="238.389,-117.445 230.446,-109.885 233.672,-115.788 228.954,-114.131 228.954,-114.131 228.954,-114.131 233.672,-115.788 227.463,-118.377 238.389,-117.445 238.389,-117.445"/>
</g>
<!-- Startup&#45;&gt;Comment -->
<g id="edge15" class="edge"><title>Startup&#45;&gt;Comment</title>
<path fill="none" stroke="#9a0453" d="M719.2,-199.896C703.38,-190.176 686.61,-181.055 670,-174 636.056,-159.583 623.956,-167.751 589,-156 580.249,-153.058 550.117,-139.524 515.549,-123.601"/>
<ellipse fill="none" stroke="#9a0453" cx="723.007" cy="-202.278" rx="4.00002" ry="4.00002"/>
<polygon fill="#9a0453" stroke="#9a0453" points="515.267,-123.471 508.073,-115.195 510.727,-121.376 506.187,-119.281 506.187,-119.281 506.187,-119.281 510.727,-121.376 504.302,-123.367 515.267,-123.471 515.267,-123.471"/>
</g>
<!-- Startup&#45;&gt;ActsAsTaggableOn::Tagging -->
<g id="edge17" class="edge"><title>Startup&#45;&gt;ActsAsTaggableOn::Tagging</title>
<path fill="none" stroke="#f2bd05" d="M718.375,-199.913C702.765,-190.293 686.279,-181.201 670,-174 640.228,-160.832 618.992,-181.692 599,-156 582.884,-135.288 598.599,-106.966 614.632,-86.8371"/>
<ellipse fill="none" stroke="#f2bd05" cx="722.091" cy="-202.242" rx="4.00002" ry="4.00002"/>
<polygon fill="#f2bd05" stroke="#f2bd05" points="614.763,-86.6818 624.641,-81.9198 617.979,-82.8535 621.195,-79.0252 621.195,-79.0252 621.195,-79.0252 617.979,-82.8535 617.75,-76.1305 614.763,-86.6818 614.763,-86.6818"/>
<text text-anchor="middle" x="622" y="-144.3" font-family="Times,serif" font-size="14.00">taggings</text>
</g>
<!-- Startup&#45;&gt;ActsAsTaggableOn::Tagging -->
<g id="edge19" class="edge"><title>Startup&#45;&gt;ActsAsTaggableOn::Tagging</title>
<path fill="none" stroke="#744889" d="M707.316,-198.96C692.669,-186.062 678.87,-171.624 668,-156 654.068,-135.975 646.353,-109.141 642.249,-89.2703"/>
<ellipse fill="none" stroke="#744889" cx="710.605" cy="-201.786" rx="4.00002" ry="4.00002"/>
<polygon fill="#744889" stroke="#744889" points="642.224,-89.1381 644.793,-78.4774 641.298,-84.2247 640.371,-79.3113 640.371,-79.3113 640.371,-79.3113 641.298,-84.2247 635.949,-80.1451 642.224,-89.1381 642.224,-89.1381"/>
<text text-anchor="middle" x="703" y="-144.3" font-family="Times,serif" font-size="14.00">tag_taggings</text>
</g>
<!-- Startup&#45;&gt;ActsAsTaggableOn::Tagging -->
<g id="edge21" class="edge"><title>Startup&#45;&gt;ActsAsTaggableOn::Tagging</title>
<path fill="none" stroke="#626d95" d="M775.812,-197.259C765.337,-177.735 752.525,-157.071 738,-140 719.523,-118.284 694.15,-98.5786 673.586,-84.4069"/>
<ellipse fill="none" stroke="#626d95" cx="777.702" cy="-200.851" rx="4.00002" ry="4.00002"/>
<polygon fill="#626d95" stroke="#626d95" points="673.391,-84.2754 667.619,-74.952 669.246,-81.4789 665.102,-78.6823 665.102,-78.6823 665.102,-78.6823 669.246,-81.4789 662.585,-82.4126 673.391,-84.2754 673.391,-84.2754"/>
<text text-anchor="middle" x="789" y="-144.3" font-family="Times,serif" font-size="14.00">field_taggings</text>
</g>
<!-- Startup&#45;&gt;ActsAsTaggableOn::Tag -->
<g id="edge18" class="edge"><title>Startup&#45;&gt;ActsAsTaggableOn::Tag</title>
<path fill="none" stroke="#aa8b66" d="M827.8,-195.014C836.271,-175.644 847.505,-155.627 862,-140 886.555,-113.527 922.188,-94.0579 951.741,-81.1918"/>
<polygon fill="#aa8b66" stroke="#aa8b66" points="827.714,-195.221 819.708,-202.715 825.787,-199.835 823.861,-204.449 823.861,-204.449 823.861,-204.449 825.787,-199.835 828.014,-206.182 827.714,-195.221 827.714,-195.221"/>
<polygon fill="#aa8b66" stroke="#aa8b66" points="951.886,-81.1307 962.849,-81.3925 956.493,-79.1883 961.101,-77.246 961.101,-77.246 961.101,-77.246 956.493,-79.1883 959.353,-73.0994 951.886,-81.1307 951.886,-81.1307"/>
<text text-anchor="middle" x="888.5" y="-144.3" font-family="Times,serif" font-size="14.00">base_tags</text>
</g>
<!-- Startup&#45;&gt;ActsAsTaggableOn::Tag -->
<g id="edge20" class="edge"><title>Startup&#45;&gt;ActsAsTaggableOn::Tag</title>
<path fill="none" stroke="#3a41c1" d="M874.287,-196.887C887.842,-183.412 901.922,-169.304 915,-156 938.108,-132.493 964.109,-105.248 982.2,-86.1614"/>
<polygon fill="#3a41c1" stroke="#3a41c1" points="873.917,-197.254 863.65,-201.106 870.369,-200.777 866.82,-204.299 866.82,-204.299 866.82,-204.299 870.369,-200.777 869.991,-207.493 873.917,-197.254 873.917,-197.254"/>
<polygon fill="#3a41c1" stroke="#3a41c1" points="982.324,-86.0302 992.467,-81.8616 985.762,-82.3991 989.199,-78.768 989.199,-78.768 989.199,-78.768 985.762,-82.3991 985.931,-75.6744 982.324,-86.0302 982.324,-86.0302"/>
<text text-anchor="middle" x="941" y="-144.3" font-family="Times,serif" font-size="14.00">tags</text>
</g>
<!-- Startup&#45;&gt;ActsAsTaggableOn::Tag -->
<g id="edge22" class="edge"><title>Startup&#45;&gt;ActsAsTaggableOn::Tag</title>
<path fill="none" stroke="#003a9e" d="M910.86,-198.3C927.095,-185.464 942.822,-171.219 956,-156 973.417,-135.886 986.789,-108.51 995.131,-88.4904"/>
<polygon fill="#003a9e" stroke="#003a9e" points="910.769,-198.369 900.105,-200.925 906.813,-201.427 902.858,-204.485 902.858,-204.485 902.858,-204.485 906.813,-201.427 905.61,-208.046 910.769,-198.369 910.769,-198.369"/>
<polygon fill="#003a9e" stroke="#003a9e" points="995.198,-88.3238 1003.1,-80.7201 997.06,-83.6837 998.923,-79.0436 998.923,-79.0436 998.923,-79.0436 997.06,-83.6837 994.747,-77.3672 995.198,-88.3238 995.198,-88.3238"/>
<text text-anchor="middle" x="982.5" y="-144.3" font-family="Times,serif" font-size="14.00">fields</text>
</g>
</g>
</svg>
