<?xml version="1.0" encoding="UTF-8" standalone="no"?>
<!DOCTYPE svg PUBLIC "-//W3C//DTD SVG 1.1//EN"
 "http://www.w3.org/Graphics/SVG/1.1/DTD/svg11.dtd">
<!-- Generated by graphviz version 2.36.0 (20140111.2315)
 -->
<!-- Title: models_diagram Pages: 1 -->
<svg width="1413pt" height="248pt"
 viewBox="0.00 0.00 1413.00 248.00" xmlns="http://www.w3.org/2000/svg" xmlns:xlink="http://www.w3.org/1999/xlink">
<g id="graph0" class="graph" transform="scale(1 1) rotate(0) translate(4 244)">
<title>models_diagram</title>
<polygon fill="none" stroke="none" points="-4,4 -4,-244 1409,-244 1409,4 -4,4"/>
<!-- _diagram_info -->
<g id="node1" class="node"><title>_diagram_info</title>
<text text-anchor="start" x="398" y="-225.6" font-family="Times,serif" font-size="13.00">Models diagram</text>
<text text-anchor="start" x="398" y="-211.6" font-family="Times,serif" font-size="13.00">Date: Dec 02 2015 &#45; 15:38</text>
<text text-anchor="start" x="398" y="-197.6" font-family="Times,serif" font-size="13.00">Migration version: 20151117134624</text>
<text text-anchor="start" x="398" y="-183.6" font-family="Times,serif" font-size="13.00">Generated by RailRoady 1.4.1</text>
<text text-anchor="start" x="398" y="-169.6" font-family="Times,serif" font-size="13.00">http://railroady.prestonlee.com</text>
</g>
<!-- Field -->
<g id="node2" class="node"><title>Field</title>
<ellipse fill="none" stroke="black" cx="651" cy="-201" rx="28.3955" ry="18"/>
<text text-anchor="middle" x="651" y="-197.3" font-family="Times,serif" font-size="14.00">Field</text>
</g>
<!-- User -->
<g id="node3" class="node"><title>User</title>
<ellipse fill="none" stroke="black" cx="725" cy="-201" rx="26.949" ry="18"/>
<text text-anchor="middle" x="725" y="-197.3" font-family="Times,serif" font-size="14.00">User</text>
</g>
<!-- Startup -->
<g id="node4" class="node"><title>Startup</title>
<ellipse fill="none" stroke="black" cx="476" cy="-106" rx="36.096" ry="18"/>
<text text-anchor="middle" x="476" y="-102.3" font-family="Times,serif" font-size="14.00">Startup</text>
</g>
<!-- User&#45;&gt;Startup -->
<g id="edge1" class="edge"><title>User&#45;&gt;Startup</title>
<path fill="none" stroke="#ed1c1d" d="M706.635,-177.098C701.158,-171.474 694.788,-165.943 688,-162 635.536,-131.521 566.107,-117.67 521.247,-111.559"/>
<polygon fill="#ed1c1d" stroke="#ed1c1d" points="706.794,-177.273 710.173,-187.705 710.151,-180.979 713.508,-184.684 713.508,-184.684 713.508,-184.684 710.151,-180.979 716.843,-181.663 706.794,-177.273 706.794,-177.273"/>
<polygon fill="#ed1c1d" stroke="#ed1c1d" points="521.149,-111.546 511.806,-105.804 516.19,-110.907 511.231,-110.267 511.231,-110.267 511.231,-110.267 516.19,-110.907 510.655,-114.731 521.149,-111.546 521.149,-111.546"/>
</g>
<!-- Help -->
<g id="node5" class="node"><title>Help</title>
<ellipse fill="none" stroke="black" cx="904" cy="-106" rx="27.4223" ry="18"/>
<text text-anchor="middle" x="904" y="-102.3" font-family="Times,serif" font-size="14.00">Help</text>
</g>
<!-- User&#45;&gt;Help -->
<g id="edge7" class="edge"><title>User&#45;&gt;Help</title>
<path fill="none" stroke="#0b9ac1" d="M754.369,-186.627C778.019,-175.667 811.985,-159.491 841,-144 852.627,-137.793 865.194,-130.529 876.023,-124.089"/>
<ellipse fill="none" stroke="#0b9ac1" cx="750.705" cy="-188.319" rx="4.00002" ry="4.00002"/>
<polygon fill="#0b9ac1" stroke="#0b9ac1" points="876.075,-124.057 886.966,-122.773 880.363,-121.486 884.651,-118.914 884.651,-118.914 884.651,-118.914 880.363,-121.486 882.337,-115.055 876.075,-124.057 876.075,-124.057"/>
</g>
<!-- Phone -->
<g id="node6" class="node"><title>Phone</title>
<ellipse fill="none" stroke="black" cx="982" cy="-106" rx="32.2457" ry="18"/>
<text text-anchor="middle" x="982" y="-102.3" font-family="Times,serif" font-size="14.00">Phone</text>
</g>
<!-- User&#45;&gt;Phone -->
<g id="edge3" class="edge"><title>User&#45;&gt;Phone</title>
<path fill="none" stroke="#566a83" d="M756.344,-189.413C798.35,-175.112 875.136,-148.578 940,-124 942.381,-123.098 944.832,-122.152 947.297,-121.187"/>
<ellipse fill="none" stroke="#566a83" cx="752.456" cy="-190.734" rx="4.00001" ry="4.00001"/>
<polygon fill="#566a83" stroke="#566a83" points="947.459,-121.123 958.414,-121.615 952.106,-119.278 956.753,-117.432 956.753,-117.432 956.753,-117.432 952.106,-119.278 955.092,-113.25 947.459,-121.123 947.459,-121.123"/>
</g>
<!-- WorkExperience -->
<g id="node7" class="node"><title>WorkExperience</title>
<ellipse fill="none" stroke="black" cx="1103" cy="-106" rx="70.2668" ry="18"/>
<text text-anchor="middle" x="1103" y="-102.3" font-family="Times,serif" font-size="14.00">WorkExperience</text>
</g>
<!-- User&#45;&gt;WorkExperience -->
<g id="edge4" class="edge"><title>User&#45;&gt;WorkExperience</title>
<path fill="none" stroke="#f37f56" d="M758.189,-191.834C822.229,-176.079 963.607,-141.295 1044.03,-121.509"/>
<ellipse fill="none" stroke="#f37f56" cx="753.979" cy="-192.87" rx="4.00001" ry="4.00001"/>
<polygon fill="#f37f56" stroke="#f37f56" points="1044.29,-121.444 1055.08,-123.425 1049.15,-120.25 1054,-119.055 1054,-119.055 1054,-119.055 1049.15,-120.25 1052.93,-114.685 1044.29,-121.444 1044.29,-121.444"/>
</g>
<!-- BestExperience -->
<g id="node8" class="node"><title>BestExperience</title>
<ellipse fill="none" stroke="black" cx="1257" cy="-106" rx="65.4659" ry="18"/>
<text text-anchor="middle" x="1257" y="-102.3" font-family="Times,serif" font-size="14.00">BestExperience</text>
</g>
<!-- User&#45;&gt;BestExperience -->
<g id="edge5" class="edge"><title>User&#45;&gt;BestExperience</title>
<path fill="none" stroke="#29ccbf" d="M759.709,-194.932C836.222,-183.607 1025.07,-154.807 1182,-124 1187.62,-122.896 1193.47,-121.684 1199.31,-120.432"/>
<ellipse fill="none" stroke="#29ccbf" cx="755.328" cy="-195.579" rx="4.00001" ry="4.00001"/>
<polygon fill="#29ccbf" stroke="#29ccbf" points="1199.31,-120.432 1210.04,-122.695 1204.19,-119.365 1209.08,-118.298 1209.08,-118.298 1209.08,-118.298 1204.19,-119.365 1208.12,-113.902 1199.31,-120.432 1199.31,-120.432"/>
</g>
<!-- Client -->
<g id="node9" class="node"><title>Client</title>
<ellipse fill="none" stroke="black" cx="1373" cy="-106" rx="32.2457" ry="18"/>
<text text-anchor="middle" x="1373" y="-102.3" font-family="Times,serif" font-size="14.00">Client</text>
</g>
<!-- User&#45;&gt;Client -->
<g id="edge6" class="edge"><title>User&#45;&gt;Client</title>
<path fill="none" stroke="#d521a9" d="M760.087,-198.777C854.086,-194.823 1118.84,-179.233 1331,-124 1333.78,-123.275 1336.63,-122.411 1339.46,-121.462"/>
<ellipse fill="none" stroke="#d521a9" cx="756.046" cy="-198.941" rx="4" ry="4"/>
<polygon fill="#d521a9" stroke="#d521a9" points="1339.55,-121.43 1350.48,-122.21 1344.24,-119.708 1348.93,-117.985 1348.93,-117.985 1348.93,-117.985 1344.24,-119.708 1347.38,-113.761 1339.55,-121.43 1339.55,-121.43"/>
</g>
<!-- Upvote -->
<g id="node10" class="node"><title>Upvote</title>
<ellipse fill="none" stroke="black" cx="36" cy="-18" rx="36.096" ry="18"/>
<text text-anchor="middle" x="36" y="-14.3" font-family="Times,serif" font-size="14.00">Upvote</text>
</g>
<!-- User&#45;&gt;Upvote -->
<g id="edge14" class="edge"><title>User&#45;&gt;Upvote</title>
<path fill="none" stroke="#b9fa57" d="M708.905,-177.913C703.082,-171.619 695.958,-165.52 688,-162 634.315,-138.257 217.259,-156.931 160,-144 138.254,-139.089 131.46,-137.861 114,-124 86.3321,-102.035 63.4871,-67.9911 49.8206,-44.6601"/>
<ellipse fill="none" stroke="#b9fa57" cx="711.673" cy="-181.147" rx="4.00002" ry="4.00002"/>
<polygon fill="#b9fa57" stroke="#b9fa57" points="49.6577,-44.3742 48.6155,-33.4579 47.1818,-40.0302 44.7059,-35.6862 44.7059,-35.6862 44.7059,-35.6862 47.1818,-40.0302 40.7963,-37.9146 49.6577,-44.3742 49.6577,-44.3742"/>
</g>
<!-- Comment -->
<g id="node11" class="node"><title>Comment</title>
<ellipse fill="none" stroke="black" cx="137" cy="-18" rx="46.2191" ry="18"/>
<text text-anchor="middle" x="137" y="-14.3" font-family="Times,serif" font-size="14.00">Comment</text>
</g>
<!-- User&#45;&gt;Comment -->
<g id="edge2" class="edge"><title>User&#45;&gt;Comment</title>
<path fill="none" stroke="#1cc246" d="M708.902,-177.918C703.08,-171.624 695.956,-165.523 688,-162 635.85,-138.905 230.723,-156.165 175,-144 152.421,-139.071 139.82,-143.23 127,-124 111.585,-100.878 117.961,-68.2708 125.708,-45.5497"/>
<ellipse fill="none" stroke="#1cc246" cx="711.671" cy="-181.151" rx="4.00002" ry="4.00002"/>
<polygon fill="#1cc246" stroke="#1cc246" points="125.818,-45.253 133.511,-37.4384 127.555,-40.5642 129.291,-35.8755 129.291,-35.8755 129.291,-35.8755 127.555,-40.5642 125.072,-34.3125 125.818,-45.253 125.818,-45.253"/>
</g>
<!-- ActsAsTaggableOn::Tagging -->
<g id="node12" class="node"><title>ActsAsTaggableOn::Tagging</title>
<ellipse fill="none" stroke="black" cx="316" cy="-18" rx="114.085" ry="18"/>
<text text-anchor="middle" x="316" y="-14.3" font-family="Times,serif" font-size="14.00">ActsAsTaggableOn::Tagging</text>
</g>
<!-- User&#45;&gt;ActsAsTaggableOn::Tagging -->
<g id="edge8" class="edge"><title>User&#45;&gt;ActsAsTaggableOn::Tagging</title>
<path fill="none" stroke="#e3fc7d" d="M708.9,-177.924C703.078,-171.63 695.954,-165.528 688,-162 637.59,-139.639 246.097,-154.712 192,-144 166.894,-139.029 152.62,-145.006 138,-124 106.887,-79.298 175.258,-50.6907 236.072,-34.8084"/>
<ellipse fill="none" stroke="#e3fc7d" cx="711.669" cy="-181.156" rx="4.00002" ry="4.00002"/>
<polygon fill="#e3fc7d" stroke="#e3fc7d" points="236.442,-34.7152 247.238,-36.6374 241.291,-33.4944 246.14,-32.2736 246.14,-32.2736 246.14,-32.2736 241.291,-33.4944 245.041,-27.9098 236.442,-34.7152 236.442,-34.7152"/>
<text text-anchor="middle" x="161" y="-102.3" font-family="Times,serif" font-size="14.00">taggings</text>
</g>
<!-- User&#45;&gt;ActsAsTaggableOn::Tagging -->
<g id="edge10" class="edge"><title>User&#45;&gt;ActsAsTaggableOn::Tagging</title>
<path fill="none" stroke="#1fcded" d="M708.879,-177.971C703.056,-171.679 695.937,-165.567 688,-162 592.83,-119.222 283.965,-206.436 220,-124 200.928,-99.4205 202.162,-79.4896 220,-54 224.72,-47.2552 230.883,-41.8055 237.812,-37.4032"/>
<ellipse fill="none" stroke="#1fcded" cx="711.648" cy="-181.199" rx="4.00002" ry="4.00002"/>
<polygon fill="#1fcded" stroke="#1fcded" points="238.188,-37.1958 249.118,-36.3093 242.567,-34.7821 246.946,-32.3683 246.946,-32.3683 246.946,-32.3683 242.567,-34.7821 244.773,-28.4274 238.188,-37.1958 238.188,-37.1958"/>
<text text-anchor="middle" x="255" y="-102.3" font-family="Times,serif" font-size="14.00">tag_taggings</text>
</g>
<!-- User&#45;&gt;ActsAsTaggableOn::Tagging -->
<g id="edge12" class="edge"><title>User&#45;&gt;ActsAsTaggableOn::Tagging</title>
<path fill="none" stroke="#a042b0" d="M708.731,-178.285C702.9,-172.011 695.813,-165.831 688,-162 553.457,-96.0362 485.649,-193.696 353,-124 324.834,-109.201 317.152,-99.799 306,-70 303.185,-62.4791 303.537,-54.0235 305.192,-46.1921"/>
<ellipse fill="none" stroke="#a042b0" cx="711.505" cy="-181.484" rx="4.00002" ry="4.00002"/>
<polygon fill="#a042b0" stroke="#a042b0" points="305.244,-46.0105 312.294,-37.6118 306.604,-41.199 307.964,-36.3876 307.964,-36.3876 307.964,-36.3876 306.604,-41.199 303.634,-35.1634 305.244,-46.0105 305.244,-46.0105"/>
<text text-anchor="middle" x="392" y="-102.3" font-family="Times,serif" font-size="14.00">field_taggings</text>
</g>
<!-- ActsAsTaggableOn::Tag -->
<g id="node13" class="node"><title>ActsAsTaggableOn::Tag</title>
<ellipse fill="none" stroke="black" cx="721" cy="-18" rx="98.1881" ry="18"/>
<text text-anchor="middle" x="721" y="-14.3" font-family="Times,serif" font-size="14.00">ActsAsTaggableOn::Tag</text>
</g>
<!-- User&#45;&gt;ActsAsTaggableOn::Tag -->
<g id="edge9" class="edge"><title>User&#45;&gt;ActsAsTaggableOn::Tag</title>
<path fill="none" stroke="#cf7cd3" d="M711.668,-174.439C704.914,-160.046 697.431,-141.497 694,-124 690.921,-108.299 685.588,-101.61 694,-88 703.405,-72.7831 720.595,-85.2169 730,-70 734.436,-62.8227 734.41,-54.0541 732.598,-45.8254"/>
<polygon fill="#cf7cd3" stroke="#cf7cd3" points="711.788,-174.685 712.124,-185.646 713.979,-179.18 716.169,-183.675 716.169,-183.675 716.169,-183.675 713.979,-179.18 720.214,-181.704 711.788,-174.685 711.788,-174.685"/>
<polygon fill="#cf7cd3" stroke="#cf7cd3" points="732.581,-45.7695 733.987,-34.8942 731.131,-40.9843 729.681,-36.1992 729.681,-36.1992 729.681,-36.1992 731.131,-40.9843 725.374,-37.5043 732.581,-45.7695 732.581,-45.7695"/>
<text text-anchor="middle" x="720.5" y="-102.3" font-family="Times,serif" font-size="14.00">base_tags</text>
</g>
<!-- User&#45;&gt;ActsAsTaggableOn::Tag -->
<g id="edge11" class="edge"><title>User&#45;&gt;ActsAsTaggableOn::Tag</title>
<path fill="none" stroke="#7a283e" d="M735.918,-173.696C746.65,-143.943 759.598,-94.3793 746,-54 744.928,-50.8154 743.46,-47.669 741.769,-44.6456"/>
<polygon fill="#7a283e" stroke="#7a283e" points="735.805,-173.995 728.053,-181.752 734.033,-178.671 732.261,-183.346 732.261,-183.346 732.261,-183.346 734.033,-178.671 736.469,-184.941 735.805,-173.995 735.805,-173.995"/>
<polygon fill="#7a283e" stroke="#7a283e" points="741.627,-44.4273 739.976,-33.5864 738.912,-40.2286 736.197,-36.0299 736.197,-36.0299 736.197,-36.0299 738.912,-40.2286 732.419,-38.4734 741.627,-44.4273 741.627,-44.4273"/>
<text text-anchor="middle" x="763" y="-102.3" font-family="Times,serif" font-size="14.00">tags</text>
</g>
<!-- User&#45;&gt;ActsAsTaggableOn::Tag -->
<g id="edge13" class="edge"><title>User&#45;&gt;ActsAsTaggableOn::Tag</title>
<path fill="none" stroke="#97f8ac" d="M745.984,-177.793C757.901,-163.605 771.671,-144.141 778,-124 782.797,-108.736 781.49,-103.615 778,-88 774.357,-71.7015 772.134,-67.2748 762,-54 758.885,-49.9201 755.224,-45.982 751.392,-42.3121"/>
<polygon fill="#97f8ac" stroke="#97f8ac" points="745.829,-177.971 735.862,-182.543 742.54,-181.737 739.251,-185.503 739.251,-185.503 739.251,-185.503 742.54,-181.737 742.641,-188.463 745.829,-177.971 745.829,-177.971"/>
<polygon fill="#97f8ac" stroke="#97f8ac" points="751.365,-42.2879 746.915,-32.2656 747.639,-38.9533 743.914,-35.6187 743.914,-35.6187 743.914,-35.6187 747.639,-38.9533 740.913,-38.9718 751.365,-42.2879 751.365,-42.2879"/>
<text text-anchor="middle" x="797.5" y="-102.3" font-family="Times,serif" font-size="14.00">fields</text>
</g>
<!-- Startup&#45;&gt;Upvote -->
<g id="edge16" class="edge"><title>Startup&#45;&gt;Upvote</title>
<path fill="none" stroke="#d7d731" d="M435.388,-96.0756C422.217,-93.3167 407.518,-90.3801 394,-88 255.55,-63.6226 217.618,-73.0167 82,-36 79.0559,-35.1964 76.0345,-34.2846 73.0151,-33.3106"/>
<ellipse fill="none" stroke="#d7d731" cx="439.454" cy="-96.9358" rx="4.00001" ry="4.00001"/>
<polygon fill="#d7d731" stroke="#d7d731" points="72.9359,-33.2836 64.9328,-25.7869 68.2055,-31.6639 63.4751,-30.0443 63.4751,-30.0443 63.4751,-30.0443 68.2055,-31.6639 62.0174,-34.3017 72.9359,-33.2836 72.9359,-33.2836"/>
</g>
<!-- Startup&#45;&gt;Comment -->
<g id="edge15" class="edge"><title>Startup&#45;&gt;Comment</title>
<path fill="none" stroke="#e02267" d="M435.299,-96.5398C422.123,-93.8069 407.443,-90.7684 394,-88 354.9,-79.948 344.19,-81.6272 306,-70 288.077,-64.5432 284.819,-59.786 267,-54 234.807,-43.5467 225.651,-44.9196 193,-36 189.248,-34.975 185.366,-33.8765 181.476,-32.7492"/>
<ellipse fill="none" stroke="#e02267" cx="439.368" cy="-97.384" rx="4.00001" ry="4.00001"/>
<polygon fill="#e02267" stroke="#e02267" points="181.455,-32.7429 173.136,-25.5976 176.659,-31.3284 171.863,-29.9138 171.863,-29.9138 171.863,-29.9138 176.659,-31.3284 170.59,-34.2299 181.455,-32.7429 181.455,-32.7429"/>
</g>
<!-- Startup&#45;&gt;ActsAsTaggableOn::Tagging -->
<g id="edge17" class="edge"><title>Startup&#45;&gt;ActsAsTaggableOn::Tagging</title>
<path fill="none" stroke="#66dae4" d="M435.332,-96.4805C387.953,-86.509 315.962,-71.1941 315,-70 309.764,-63.5035 308.518,-54.8807 309.033,-46.5768"/>
<ellipse fill="none" stroke="#66dae4" cx="439.375" cy="-97.3306" rx="4.00001" ry="4.00001"/>
<polygon fill="#66dae4" stroke="#66dae4" points="309.07,-46.3159 314.918,-37.0393 309.766,-41.3645 310.461,-36.4131 310.461,-36.4131 310.461,-36.4131 309.766,-41.3645 306.005,-35.787 309.07,-46.3159 309.07,-46.3159"/>
<text text-anchor="middle" x="338" y="-58.3" font-family="Times,serif" font-size="14.00">taggings</text>
</g>
<!-- Startup&#45;&gt;ActsAsTaggableOn::Tagging -->
<g id="edge19" class="edge"><title>Startup&#45;&gt;ActsAsTaggableOn::Tagging</title>
<path fill="none" stroke="#7010f9" d="M438.055,-93.2544C421.033,-87.3129 401.004,-79.3671 384,-70 379.79,-67.6808 362.252,-54.5121 346.042,-42.1383"/>
<ellipse fill="none" stroke="#7010f9" cx="441.856" cy="-94.5503" rx="4.00001" ry="4.00001"/>
<polygon fill="#7010f9" stroke="#7010f9" points="345.705,-41.8802 340.5,-32.2284 341.735,-38.8409 337.765,-35.8016 337.765,-35.8016 337.765,-35.8016 341.735,-38.8409 335.029,-39.3749 345.705,-41.8802 345.705,-41.8802"/>
<text text-anchor="middle" x="419" y="-58.3" font-family="Times,serif" font-size="14.00">tag_taggings</text>
</g>
<!-- Startup&#45;&gt;ActsAsTaggableOn::Tagging -->
<g id="edge21" class="edge"><title>Startup&#45;&gt;ActsAsTaggableOn::Tagging</title>
<path fill="none" stroke="#61806d" d="M470.372,-80.2974C467.061,-70.8539 461.911,-60.7447 454,-54 442.92,-44.5541 429.633,-37.6021 415.74,-32.4964"/>
<ellipse fill="none" stroke="#61806d" cx="471.563" cy="-84.1623" rx="4.00001" ry="4.00001"/>
<polygon fill="#61806d" stroke="#61806d" points="415.527,-32.4252 407.475,-24.9818 410.786,-30.837 406.045,-29.2487 406.045,-29.2487 406.045,-29.2487 410.786,-30.837 404.616,-33.5157 415.527,-32.4252 415.527,-32.4252"/>
<text text-anchor="middle" x="505" y="-58.3" font-family="Times,serif" font-size="14.00">field_taggings</text>
</g>
<!-- Startup&#45;&gt;ActsAsTaggableOn::Tag -->
<g id="edge18" class="edge"><title>Startup&#45;&gt;ActsAsTaggableOn::Tag</title>
<path fill="none" stroke="#eebe77" d="M510.613,-88.4989C522.511,-82.7407 535.883,-76.1735 548,-70 561.464,-63.14 563.884,-59.3939 578,-54 599.326,-45.8511 623.178,-39.1278 645.198,-33.8274"/>
<polygon fill="#eebe77" stroke="#eebe77" points="510.447,-88.5786 499.485,-88.8666 505.943,-90.7495 501.439,-92.9203 501.439,-92.9203 501.439,-92.9203 505.943,-90.7495 503.393,-96.9741 510.447,-88.5786 510.447,-88.5786"/>
<polygon fill="#eebe77" stroke="#eebe77" points="645.434,-33.7722 656.197,-35.8737 650.303,-32.6322 655.171,-31.4922 655.171,-31.4922 655.171,-31.4922 650.303,-32.6322 654.145,-27.1107 645.434,-33.7722 645.434,-33.7722"/>
<text text-anchor="middle" x="604.5" y="-58.3" font-family="Times,serif" font-size="14.00">base_tags</text>
</g>
<!-- Startup&#45;&gt;ActsAsTaggableOn::Tag -->
<g id="edge20" class="edge"><title>Startup&#45;&gt;ActsAsTaggableOn::Tag</title>
<path fill="none" stroke="#b9de44" d="M521.368,-99.465C553.069,-94.4822 595.843,-85.4875 631,-70 642.396,-64.98 643.349,-60.4513 654,-54 661.996,-49.1568 670.73,-44.299 679.172,-39.8096"/>
<polygon fill="#b9de44" stroke="#b9de44" points="520.959,-99.5261 510.404,-96.5541 516.014,-100.265 511.069,-101.005 511.069,-101.005 511.069,-101.005 516.014,-100.265 511.734,-105.455 520.959,-99.5261 520.959,-99.5261"/>
<polygon fill="#b9de44" stroke="#b9de44" points="679.309,-39.738 690.255,-39.0879 683.739,-37.4195 688.169,-35.101 688.169,-35.101 688.169,-35.101 683.739,-37.4195 686.082,-31.114 679.309,-39.738 679.309,-39.738"/>
<text text-anchor="middle" x="665" y="-58.3" font-family="Times,serif" font-size="14.00">tags</text>
</g>
<!-- Startup&#45;&gt;ActsAsTaggableOn::Tag -->
<g id="edge22" class="edge"><title>Startup&#45;&gt;ActsAsTaggableOn::Tag</title>
<path fill="none" stroke="#ed29e2" d="M522.401,-105.428C564.901,-103.916 628.267,-96.733 676,-70 687.156,-63.7523 696.925,-53.6655 704.485,-44.1052"/>
<polygon fill="#ed29e2" stroke="#ed29e2" points="522.331,-105.43 512.216,-101.196 517.333,-105.562 512.335,-105.694 512.335,-105.694 512.335,-105.694 517.333,-105.562 512.454,-110.193 522.331,-105.43 522.331,-105.43"/>
<polygon fill="#ed29e2" stroke="#ed29e2" points="704.579,-43.9786 714.152,-38.631 707.559,-39.9637 710.539,-35.9489 710.539,-35.9489 710.539,-35.9489 707.559,-39.9637 706.926,-33.2667 704.579,-43.9786 704.579,-43.9786"/>
<text text-anchor="middle" x="710.5" y="-58.3" font-family="Times,serif" font-size="14.00">fields</text>
</g>
</g>
</svg>
